CD_DA

CD_TEXT {
  LANGUAGE 0 {
    TITLE "SYSTEM OF A DOWN   STEAL THIS ALBUM!"
    PERFORMER "SYSTEM OF A DOWN"
    DISC_ID "5102482000"
    SIZE_INFO { 0,  1, 16,  3, 17,  3,  0,  0,  0,  0,  1,  0,
                0,  0,  0,  0,  0,  0,  0,  3, 23,  0,  0,  0,
                0,  0,  0,  0,  0,  0,  0,  0,  0,  0,  0,  0}
  }
}

// Track 1
TRACK AUDIO
NO COPY
NO PRE_EMPHASIS
TWO_CHANNEL_AUDIO
ISRC "USSM10213322"
CD_TEXT {
  LANGUAGE 0 {
    TITLE "CHIC 'N' STEW"
    PERFORMER ""
    DISC_ID ""
  }
}
FILE "data.wav" 0 02:23:47


// Track 2
TRACK AUDIO
NO COPY
NO PRE_EMPHASIS
TWO_CHANNEL_AUDIO
ISRC "USSM10213170"
CD_TEXT {
  LANGUAGE 0 {
    TITLE "INNERVISION"
    PERFORMER ""
  }
}
FILE "data.wav" 02:23:47 02:33:58


// Track 3
TRACK AUDIO
NO COPY
NO PRE_EMPHASIS
TWO_CHANNEL_AUDIO
ISRC "USSM10213328"
CD_TEXT {
  LANGUAGE 0 {
    TITLE "BUBBLES"
    PERFORMER ""
  }
}
FILE "data.wav" 04:57:30 01:56:67


// Track 4
TRACK AUDIO
NO COPY
NO PRE_EMPHASIS
TWO_CHANNEL_AUDIO
ISRC "USSM10213324"
CD_TEXT {
  LANGUAGE 0 {
    TITLE "BOOM!"
    PERFORMER ""
  }
}
FILE "data.wav" 06:54:22 02:14:68


// Track 5
TRACK AUDIO
NO COPY
NO PRE_EMPHASIS
TWO_CHANNEL_AUDIO
ISRC "USSM10213329"
CD_TEXT {
  LANGUAGE 0 {
    TITLE "N\334GUNS"
    PERFORMER ""
  }
}
FILE "data.wav" 09:09:15 02:30:27


// Track 6
TRACK AUDIO
NO COPY
NO PRE_EMPHASIS
TWO_CHANNEL_AUDIO
ISRC "USSM10213334"
CD_TEXT {
  LANGUAGE 0 {
    TITLE "A.D.D."
    PERFORMER ""
  }
}
FILE "data.wav" 11:39:42 03:17:23


// Track 7
TRACK AUDIO
NO COPY
NO PRE_EMPHASIS
TWO_CHANNEL_AUDIO
ISRC "USSM10213332"
CD_TEXT {
  LANGUAGE 0 {
    TITLE "MR. JACK"
    PERFORMER ""
  }
}
FILE "data.wav" 14:56:65 04:09:47


// Track 8
TRACK AUDIO
NO COPY
NO PRE_EMPHASIS
TWO_CHANNEL_AUDIO
ISRC "USSM10213326"
CD_TEXT {
  LANGUAGE 0 {
    TITLE "I-E-A-I-A-I-O"
    PERFORMER ""
  }
}
FILE "data.wav" 19:06:37 03:08:45


// Track 9
TRACK AUDIO
NO COPY
NO PRE_EMPHASIS
TWO_CHANNEL_AUDIO
ISRC "USSM10213330"
CD_TEXT {
  LANGUAGE 0 {
    TITLE "36"
    PERFORMER ""
  }
}
FILE "data.wav" 22:15:07 00:46:25


// Track 10
TRACK AUDIO
NO COPY
NO PRE_EMPHASIS
TWO_CHANNEL_AUDIO
ISRC "USSM10213331"
CD_TEXT {
  LANGUAGE 0 {
    TITLE "PICTURES"
    PERFORMER ""
  }
}
FILE "data.wav" 23:01:32 02:06:23


// Track 11
TRACK AUDIO
NO COPY
NO PRE_EMPHASIS
TWO_CHANNEL_AUDIO
ISRC "USSM10213323"
CD_TEXT {
  LANGUAGE 0 {
    TITLE "HIGHWAY SONG"
    PERFORMER ""
  }
}
FILE "data.wav" 25:07:55 03:13:47


// Track 12
TRACK AUDIO
NO COPY
NO PRE_EMPHASIS
TWO_CHANNEL_AUDIO
ISRC "USSM10213321"
CD_TEXT {
  LANGUAGE 0 {
    TITLE "F**K THE SYSTEM"
    PERFORMER ""
  }
}
FILE "data.wav" 28:21:27 02:12:55


// Track 13
TRACK AUDIO
NO COPY
NO PRE_EMPHASIS
TWO_CHANNEL_AUDIO
ISRC "USSM10213327"
CD_TEXT {
  LANGUAGE 0 {
    TITLE "EGO BRAIN"
    PERFORMER ""
  }
}
FILE "data.wav" 30:34:07 03:21:68


// Track 14
TRACK AUDIO
NO COPY
NO PRE_EMPHASIS
TWO_CHANNEL_AUDIO
ISRC "USSM10213325"
CD_TEXT {
  LANGUAGE 0 {
    TITLE "THETAWAVES"
    PERFORMER ""
  }
}
FILE "data.wav" 33:56:00 02:36:45


// Track 15
TRACK AUDIO
NO COPY
NO PRE_EMPHASIS
TWO_CHANNEL_AUDIO
ISRC "USSM10213333"
CD_TEXT {
  LANGUAGE 0 {
    TITLE "ROULETTE"
    PERFORMER ""
  }
}
FILE "data.wav" 36:32:45 03:21:15


// Track 16
TRACK AUDIO
NO COPY
NO PRE_EMPHASIS
TWO_CHANNEL_AUDIO
ISRC "USSM10213523"
CD_TEXT {
  LANGUAGE 0 {
    TITLE "STREAMLINE"
    PERFORMER ""
  }
}
FILE "data.wav" 39:53:60 03:37:45

